<svg width="665" height="366" viewBox="0 0 665 366" fill="none" xmlns="http://www.w3.org/2000/svg">
<rect width="665" height="366" fill="#F7F7F7"/>
<path d="M204.5 86C204.5 69.7076 217.708 56.5 234 56.5H415C431.292 56.5 444.5 69.7076 444.5 86V365.5H204.5V86Z" fill="white" stroke="#DDDDDD"/>
<path d="M216.013 86.7425C216.013 75.973 224.743 67.2426 235.513 67.2426H413.487C424.257 67.2426 432.987 75.973 432.987 86.7426V365.5H216.013V86.7425Z" fill="white" stroke="#DDDDDD"/>
<path d="M324.646 265.626C311.952 265.626 301.621 275.955 301.621 288.646C301.621 301.337 311.952 311.666 324.646 311.666C337.341 311.666 347.672 301.337 347.672 288.646C347.672 275.955 337.341 265.626 324.646 265.626ZM303.935 288.646C303.935 285.65 304.569 282.8 305.738 280.218L315.606 307.257C308.711 303.92 303.935 296.831 303.935 288.646ZM324.646 309.352C322.624 309.352 320.65 309.059 318.798 308.499L325.012 290.449L331.371 307.866C331.42 307.963 331.468 308.061 331.517 308.158C329.373 308.938 327.058 309.352 324.646 309.352ZM327.497 278.951C328.739 278.878 329.86 278.756 329.86 278.756C330.981 278.634 330.835 276.978 329.738 277.051C329.738 277.051 326.376 277.319 324.232 277.319C322.21 277.319 318.774 277.051 318.774 277.051C317.653 276.978 317.531 278.683 318.652 278.756C318.652 278.756 319.7 278.878 320.821 278.951L324.037 287.794L319.505 301.386L311.976 278.975C313.219 278.902 314.339 278.781 314.339 278.781C315.46 278.659 315.314 277.002 314.218 277.075C314.218 277.075 310.855 277.343 308.711 277.343C308.321 277.343 307.858 277.343 307.371 277.319C311.074 271.692 317.434 267.989 324.67 267.989C330.055 267.989 334.977 270.06 338.656 273.421C338.559 273.421 338.486 273.397 338.388 273.397C336.366 273.397 334.904 275.175 334.904 277.075C334.904 278.781 335.879 280.218 336.926 281.923C337.706 283.311 338.632 285.065 338.632 287.623C338.632 289.401 337.95 291.447 337.048 294.322L334.977 301.216L327.497 278.951ZM342.823 278.707C344.431 281.655 345.357 285.041 345.357 288.646C345.357 296.271 341.215 302.945 335.075 306.526L341.41 288.256C342.579 285.309 342.993 282.946 342.993 280.851C342.945 280.096 342.896 279.39 342.823 278.707Z" fill="#4D4744"/>
<path d="M278.957 67.2426C279.221 76.0584 286.451 83.1238 295.33 83.1238H353.67C362.55 83.1238 369.779 76.0584 370.044 67.2426H278.957Z" fill="white" stroke="#DDDDDD"/>
<g clip-path="url(#clip0_79_128)">
<path d="M314.216 166.51L316.457 152.448C315.574 152.448 314.063 152.448 314.063 152.448C312.942 152.448 311.499 151.822 311.074 150.673C310.938 150.284 310.616 148.949 312.467 147.648C313.129 147.191 313.554 146.684 313.638 146.295C313.723 145.89 313.621 145.535 313.333 145.264C312.925 144.876 312.127 144.656 311.108 144.656C309.393 144.656 308.187 145.636 308.069 146.346C307.984 146.87 308.391 147.293 308.748 147.563C309.818 148.357 310.072 149.507 309.41 150.589C308.731 151.704 307.253 152.431 305.674 152.448C305.674 152.448 304.112 152.448 303.229 152.448C303.025 153.817 299.697 174.809 299.442 176.466H312.654C312.772 175.739 313.384 171.767 314.216 166.51Z" fill="#193E4F"/>
<path d="M298.729 181.333H304.146C306.455 181.333 307.016 182.5 306.846 183.565C306.71 184.427 306.116 185.069 305.097 185.491C306.388 185.982 306.897 186.742 306.71 187.942C306.472 189.447 305.165 190.562 303.45 190.562H297.285L298.729 181.333ZM302.312 185.153C303.365 185.153 303.857 184.596 303.959 183.936C304.061 183.227 303.738 182.736 302.686 182.736H301.752L301.378 185.153H302.312ZM301.735 189.125C302.821 189.125 303.45 188.686 303.603 187.79C303.721 187.013 303.28 186.556 302.227 186.556H301.174L300.767 189.142H301.735V189.125Z" fill="#193E4F"/>
<path d="M314.301 190.63C312.892 190.731 312.212 190.579 311.873 189.97C311.125 190.427 310.293 190.663 309.41 190.663C307.814 190.663 307.254 189.835 307.407 188.923C307.474 188.483 307.729 188.061 308.137 187.706C309.02 186.945 311.193 186.844 312.042 186.269C312.11 185.627 311.856 185.39 311.058 185.39C310.124 185.39 309.342 185.694 308.001 186.607L308.324 184.511C309.478 183.683 310.599 183.294 311.89 183.294C313.537 183.294 314.997 183.97 314.726 185.762L314.403 187.79C314.284 188.5 314.318 188.72 315.116 188.737L314.301 190.63ZM311.856 187.435C311.108 187.908 309.716 187.824 309.563 188.804C309.495 189.261 309.784 189.599 310.242 189.599C310.684 189.599 311.227 189.413 311.669 189.108C311.635 188.939 311.652 188.77 311.703 188.449L311.856 187.435Z" fill="#193E4F"/>
<path d="M316.933 183.412H319.752L319.599 184.342C320.499 183.581 321.178 183.294 322.061 183.294C323.641 183.294 324.371 184.258 324.116 185.829L323.386 190.545H320.567L321.178 186.641C321.297 185.931 321.076 185.593 320.533 185.593C320.091 185.593 319.684 185.829 319.293 186.353L318.648 190.528H315.829L316.933 183.412Z" fill="#193E4F"/>
<path d="M326.324 181.333H329.143L328.43 185.863L331.13 183.412H334.611L331.147 186.455L333.932 190.545H330.382L328.243 187.232H328.209L327.699 190.528H324.88L326.324 181.333Z" fill="#193E4F"/>
<path d="M336.292 181.333H339.535L338.109 190.545H334.865L336.292 181.333Z" fill="#193E4F"/>
<path d="M341.115 181.333H345.751C349.334 181.333 350.37 183.919 350.03 186.066C349.707 188.162 348.043 190.545 344.902 190.545H339.671L341.115 181.333ZM344.121 188.348C345.7 188.348 346.566 187.57 346.821 185.931C347.007 184.714 346.634 183.514 344.885 183.514H344.019L343.271 188.348H344.121Z" fill="#193E4F"/>
<path d="M331.979 140.16H318.478L316.678 151.535H318.971C320.227 151.535 321.416 150.96 321.926 150.132C322.095 149.862 322.163 149.625 322.163 149.405C322.163 148.932 321.841 148.577 321.518 148.341C320.635 147.681 320.448 146.988 320.448 146.498C320.448 146.397 320.448 146.312 320.465 146.228C320.652 145.028 322.282 143.726 324.439 143.726C325.729 143.726 326.714 144.03 327.309 144.588C327.835 145.078 328.039 145.771 327.886 146.498C327.699 147.36 326.833 148.07 326.341 148.425C325.033 149.338 325.203 150.132 325.288 150.369C325.56 151.079 326.595 151.535 327.394 151.535H330.892C330.892 151.535 330.892 151.535 330.892 151.552C335.647 151.586 338.194 153.766 337.396 158.837C336.649 163.552 333.014 165.581 328.684 165.614L326.969 176.499H329.499C340.181 176.499 348.909 169.671 350.624 158.887C352.747 145.501 344.205 140.16 331.979 140.16Z" fill="#193E4F"/>
</g>
<path d="M329.873 234.02H325.268V238.624H323.733V234.02H319.127V232.485H323.733V227.881H325.268V232.485H329.873V234.02Z" fill="black"/>
<defs>
<clipPath id="clip0_79_128">
<rect width="105.15" height="86.7079" fill="white" transform="translate(271.542 121.99)"/>
</clipPath>
</defs>
</svg>
