<svg width="34" height="34" viewBox="0 0 34 34" fill="none" xmlns="http://www.w3.org/2000/svg">
<path d="M3.68222 7.00001H0.341064V30.3333C0.341064 32.1667 1.84459 33.6667 3.68222 33.6667H27.0703V30.3333H3.68222V7.00001ZM30.4115 0.333344H10.3645C8.5269 0.333344 7.02338 1.83334 7.02338 3.66668V23.6667C7.02338 25.5 8.5269 27 10.3645 27H30.4115C32.2491 27 33.7526 25.5 33.7526 23.6667V3.66668C33.7526 1.83334 32.2491 0.333344 30.4115 0.333344ZM30.4115 23.6667H10.3645V3.66668H30.4115V23.6667ZM13.7057 12H27.0703V15.3333H13.7057V12ZM13.7057 17H20.388V20.3333H13.7057V17ZM13.7057 7.00001H27.0703V10.3333H13.7057V7.00001Z" fill="#222222"/>
</svg>
