<svg width="29" height="36" viewBox="0 0 29 36" fill="none" xmlns="http://www.w3.org/2000/svg">
<path d="M25.4746 12.3333H23.726V8.99999C23.726 4.39999 19.8092 0.666656 14.9831 0.666656C10.157 0.666656 6.24015 4.39999 6.24015 8.99999V12.3333H4.49156C2.56811 12.3333 0.994385 13.8333 0.994385 15.6667V32.3333C0.994385 34.1667 2.56811 35.6667 4.49156 35.6667H25.4746C27.3981 35.6667 28.9718 34.1667 28.9718 32.3333V15.6667C28.9718 13.8333 27.3981 12.3333 25.4746 12.3333ZM9.73733 8.99999C9.73733 6.23332 12.0804 3.99999 14.9831 3.99999C17.8858 3.99999 20.2289 6.23332 20.2289 8.99999V12.3333H9.73733V8.99999ZM25.4746 32.3333H4.49156V15.6667H25.4746V32.3333ZM14.9831 27.3333C16.9065 27.3333 18.4803 25.8333 18.4803 24C18.4803 22.1667 16.9065 20.6667 14.9831 20.6667C13.0596 20.6667 11.4859 22.1667 11.4859 24C11.4859 25.8333 13.0596 27.3333 14.9831 27.3333Z" fill="#222222"/>
</svg>
