<svg width="48" height="48" viewBox="0 0 48 48" fill="none" xmlns="http://www.w3.org/2000/svg">
<circle cx="24" cy="24" r="24" fill="white"/>
<path d="M34.919 30.2878C35.3237 30.2915 35.7182 30.4152 36.0529 30.6432C36.3876 30.8712 36.6475 31.1934 36.7998 31.5692C36.9522 31.9449 36.9901 32.3575 36.9089 32.7548C36.8277 33.1522 36.631 33.5166 36.3435 33.8021C36.0561 34.0876 35.6907 34.2814 35.2935 34.3592C34.8964 34.437 34.4851 34.3952 34.1115 34.2392C33.738 34.0831 33.4189 33.8198 33.1944 33.4823C32.9699 33.1448 32.8501 32.7482 32.8501 32.3426C32.8538 31.7956 33.0735 31.2723 33.4613 30.8872C33.849 30.5021 34.3731 30.2866 34.919 30.2878Z" fill="#222222"/>
<path d="M24.6632 17.9358C22.471 17.9358 20.6837 18.6798 19.3782 19.9253V12H14.491C14.0954 12 14 12.4175 14 12.898C14.0102 13.2914 14.064 13.6826 14.1606 14.0641H16.8811V31.9252H15.2171C14.8006 31.9252 14.7051 32.3427 14.7051 32.8232C14.7151 33.2166 14.7681 33.6076 14.8634 33.9894H19.3782V32.401C20.7 33.6022 22.4989 34.2996 24.6632 34.2996C29.3362 34.2996 32.4105 30.962 32.4105 26.2786C32.4105 21.5953 29.562 17.9358 24.6632 17.9358ZM24.7051 32.0862C21.696 32.0862 19.5504 29.6465 19.5504 26.2786C19.5504 22.9107 21.4284 20.1166 24.7051 20.1166C27.9818 20.1166 29.8901 22.9154 29.8901 26.2786C29.8901 29.6419 27.7049 32.0862 24.7051 32.0862Z" fill="#222222"/>
</svg>
