<svg width="158" height="204" viewBox="0 0 158 204" fill="none" xmlns="http://www.w3.org/2000/svg">
<path d="M0.5 22C0.5 10.1259 10.1259 0.5 22 0.5H133C146.531 0.5 157.5 11.469 157.5 25V202.787H0.5V22Z" fill="white" stroke="url(#paint0_linear_127_242)"/>
<path d="M8.04778 27.0445C8.04778 16.275 16.7782 7.54456 27.5478 7.54456H130.452C141.222 7.54456 149.952 16.275 149.952 27.0446V202.787H8.04778V27.0445Z" fill="white" stroke="url(#paint1_linear_127_242)"/>
<path d="M79.0958 137.465C70.7733 137.465 64.0003 144.238 64.0003 152.561C64.0003 160.883 70.7733 167.656 79.0958 167.656C87.4183 167.656 94.1914 160.883 94.1914 152.561C94.1914 144.238 87.4183 137.465 79.0958 137.465ZM65.5178 152.561C65.5178 150.596 65.9332 148.727 66.6999 147.034L73.1694 164.765C68.6488 162.577 65.5178 157.928 65.5178 152.561ZM79.0958 166.139C77.77 166.139 76.4761 165.947 75.262 165.58L79.3354 153.743L83.5047 165.164C83.5366 165.228 83.5686 165.292 83.6005 165.356C82.1948 165.867 80.6773 166.139 79.0958 166.139ZM80.9648 146.203C81.7795 146.155 82.5143 146.075 82.5143 146.075C83.2491 145.995 83.1533 144.909 82.4344 144.957C82.4344 144.957 80.23 145.133 78.8243 145.133C77.4984 145.133 75.2461 144.957 75.2461 144.957C74.5113 144.909 74.4314 146.027 75.1662 146.075C75.1662 146.075 75.8531 146.155 76.5879 146.203L78.6965 152.002L75.7253 160.915L70.7893 146.219C71.604 146.171 72.3388 146.091 72.3388 146.091C73.0736 146.011 72.9777 144.925 72.2589 144.973C72.2589 144.973 70.0545 145.149 68.6488 145.149C68.3932 145.149 68.0897 145.149 67.7702 145.133C70.1982 141.443 74.3675 139.015 79.1118 139.015C82.6421 139.015 85.8689 140.372 88.2809 142.577C88.2171 142.577 88.1691 142.561 88.1052 142.561C86.7794 142.561 85.8209 143.727 85.8209 144.973C85.8209 146.091 86.4599 147.034 87.1468 148.152C87.658 149.062 88.265 150.213 88.265 151.89C88.265 153.056 87.8177 154.398 87.2267 156.283L85.8689 160.803L80.9648 146.203ZM91.0125 146.043C92.0668 147.976 92.6738 150.197 92.6738 152.561C92.6738 157.561 89.9582 161.938 85.9328 164.286L90.086 152.305C90.8528 150.372 91.1243 148.823 91.1243 147.449C91.0924 146.954 91.0604 146.491 91.0125 146.043Z" fill="#4D4744"/>
<path d="M49.3205 7.54456C49.5816 13.1501 54.2089 17.6146 59.879 17.6146H98.121C103.791 17.6146 108.418 13.1501 108.679 7.54456H49.3205Z" fill="white" stroke="#DDDDDD"/>
<g clip-path="url(#clip0_127_242)">
<path d="M72.2578 72.4686L73.7274 63.2468C73.1484 63.2468 72.1576 63.2468 72.1576 63.2468C71.4228 63.2468 70.4765 62.8367 70.1982 62.083C70.1091 61.8281 69.8976 60.9525 71.1111 60.099C71.5453 59.7998 71.8236 59.4673 71.8793 59.2123C71.9349 58.9463 71.8681 58.7136 71.6789 58.5362C71.4117 58.2813 70.8884 58.1372 70.2204 58.1372C69.096 58.1372 68.3055 58.7801 68.2276 59.2456C68.1719 59.5892 68.4391 59.8663 68.6729 60.0436C69.3743 60.5646 69.5413 61.3183 69.1071 62.0276C68.6618 62.7591 67.6932 63.2358 66.6578 63.2468C66.6578 63.2468 65.6336 63.2468 65.0547 63.2468C64.9211 64.1446 62.739 77.9107 62.572 78.9969H71.2335C71.3115 78.5203 71.7123 75.9156 72.2578 72.4686Z" fill="#193E4F"/>
<path d="M62.1044 82.1891H65.6558C67.1699 82.1891 67.5373 82.9539 67.426 83.6521C67.3369 84.2174 66.9473 84.6386 66.2793 84.9157C67.1254 85.2371 67.4594 85.7359 67.3369 86.5229C67.1811 87.5093 66.3238 88.2408 65.1994 88.2408H61.1581L62.1044 82.1891ZM64.4535 84.694C65.1437 84.694 65.4666 84.3283 65.5334 83.896C65.6002 83.4305 65.3886 83.109 64.6984 83.109H64.0861L63.8411 84.694H64.4535ZM64.0749 87.2987C64.7875 87.2987 65.1994 87.0105 65.2996 86.4231C65.3775 85.9132 65.0881 85.614 64.3978 85.614H63.7075L63.4404 87.3098H64.0749V87.2987Z" fill="#193E4F"/>
<path d="M72.3135 88.2852C71.3894 88.3517 70.9441 88.252 70.7214 87.853C70.2316 88.1522 69.686 88.3074 69.1071 88.3074C68.0606 88.3074 67.6932 87.7643 67.7934 87.1658C67.8379 86.8776 68.0049 86.6005 68.2721 86.3677C68.8511 85.869 70.2761 85.8024 70.8328 85.4256C70.8773 85.0044 70.7103 84.8492 70.187 84.8492C69.5747 84.8492 69.0626 85.0487 68.1831 85.6473L68.3946 84.2729C69.1517 83.7298 69.8864 83.4749 70.7326 83.4749C71.8125 83.4749 72.7699 83.9182 72.5918 85.0931L72.3803 86.4231C72.3023 86.8887 72.3246 87.0327 72.8479 87.0438L72.3135 88.2852ZM70.7103 86.1904C70.2204 86.5007 69.3075 86.4453 69.2073 87.0882C69.1628 87.3874 69.3521 87.6091 69.6526 87.6091C69.9421 87.6091 70.2984 87.4872 70.5878 87.2877C70.5656 87.1768 70.5767 87.066 70.6101 86.8554L70.7103 86.1904Z" fill="#193E4F"/>
<path d="M74.0391 83.5524H75.8872L75.787 84.162C76.377 83.6633 76.8224 83.4749 77.4013 83.4749C78.4367 83.4749 78.9154 84.1066 78.7484 85.1374L78.2697 88.2298H76.4216L76.8224 85.6694C76.9003 85.2039 76.7556 84.9822 76.3993 84.9822C76.1098 84.9822 75.8426 85.1374 75.5866 85.481L75.1635 88.2187H73.3154L74.0391 83.5524Z" fill="#193E4F"/>
<path d="M80.1957 82.1891H82.0438L81.5762 85.1595L83.3464 83.5524H85.6287L83.3575 85.5475L85.1833 88.2298H82.8565L81.4538 86.0573H81.4315L81.0975 88.2187H79.2494L80.1957 82.1891Z" fill="#193E4F"/>
<path d="M86.7308 82.1891H88.8573L87.9221 88.2298H85.7957L86.7308 82.1891Z" fill="#193E4F"/>
<path d="M89.8926 82.1891H92.932C95.2811 82.1891 95.9602 83.8849 95.7375 85.2926C95.526 86.6669 94.4349 88.2298 92.3753 88.2298H88.9463L89.8926 82.1891ZM91.8632 86.7889C92.8986 86.7889 93.4664 86.279 93.6334 85.2039C93.7558 84.4058 93.5109 83.6189 92.3642 83.6189H91.7964L91.3065 86.7889H91.8632Z" fill="#193E4F"/>
<path d="M83.903 55.189H75.0522L73.8721 62.6484H75.3751C76.1989 62.6484 76.9782 62.2715 77.3122 61.7284C77.4236 61.5511 77.4681 61.3959 77.4681 61.2518C77.4681 60.9415 77.2566 60.7087 77.045 60.5535C76.4661 60.1213 76.3437 59.6668 76.3437 59.3454C76.3437 59.2789 76.3437 59.2235 76.3548 59.168C76.4773 58.3811 77.546 57.5276 78.9599 57.5276C79.8061 57.5276 80.4518 57.7272 80.8414 58.0929C81.1866 58.4143 81.3202 58.8688 81.22 59.3454C81.0975 59.9107 80.5297 60.3762 80.2069 60.6089C79.3496 61.2075 79.4609 61.7284 79.5166 61.8836C79.6947 62.3491 80.3738 62.6484 80.8971 62.6484H83.1905C83.1905 62.6484 83.1905 62.6484 83.1905 62.6594C86.3078 62.6816 87.9778 64.1114 87.4545 67.4366C86.9647 70.5289 84.5822 71.859 81.7432 71.8812L80.6188 79.0191H82.2776C89.2803 79.0191 95.0028 74.5413 96.1272 67.4698C97.5189 58.6914 91.9189 55.189 83.903 55.189Z" fill="#193E4F"/>
</g>
<g clip-path="url(#clip1_127_242)">
<path d="M82.5223 116.739H79.5032V119.758H78.4968V116.739H75.4777V115.732H78.4968V112.713H79.5032V115.732H82.5223V116.739Z" fill="black"/>
</g>
<defs>
<linearGradient id="paint0_linear_127_242" x1="79" y1="0" x2="79" y2="203.287" gradientUnits="userSpaceOnUse">
<stop stop-color="#DDDDDD"/>
<stop offset="1" stop-color="#DDDDDD" stop-opacity="0"/>
</linearGradient>
<linearGradient id="paint1_linear_127_242" x1="79" y1="7.04456" x2="79" y2="203.287" gradientUnits="userSpaceOnUse">
<stop stop-color="#DDDDDD"/>
<stop offset="1" stop-color="#DDDDDD" stop-opacity="0"/>
</linearGradient>
<clipPath id="clip0_127_242">
<rect width="68.9363" height="56.8599" fill="white" transform="translate(44.2803 43.2739)"/>
</clipPath>
<clipPath id="clip1_127_242">
<rect width="12.0764" height="12.0764" fill="white" transform="translate(72.9618 110.198)"/>
</clipPath>
</defs>
</svg>
