<svg width="36" height="34" viewBox="0 0 36 34" fill="none" xmlns="http://www.w3.org/2000/svg">
<path d="M14.9229 18.6667C14.9229 19.8167 13.9437 20.75 12.7372 20.75C11.5307 20.75 10.5515 19.8167 10.5515 18.6667C10.5515 17.5167 11.5307 16.5833 12.7372 16.5833C13.9437 16.5833 14.9229 17.5167 14.9229 18.6667ZM23.2287 16.5833C22.0222 16.5833 21.043 17.5167 21.043 18.6667C21.043 19.8167 22.0222 20.75 23.2287 20.75C24.4353 20.75 25.4145 19.8167 25.4145 18.6667C25.4145 17.5167 24.4353 16.5833 23.2287 16.5833ZM35.4689 17C35.4689 26.2 27.6352 33.6667 17.983 33.6667C8.33075 33.6667 0.49707 26.2 0.49707 17C0.49707 7.80001 8.33075 0.333344 17.983 0.333344C27.6352 0.333344 35.4689 7.80001 35.4689 17ZM15.6399 3.86668C18.0879 7.73334 22.5293 10.3333 27.6002 10.3333C28.4046 10.3333 29.1914 10.25 29.9433 10.1333C27.4953 6.26668 23.0539 3.66668 17.983 3.66668C17.1786 3.66668 16.3917 3.75001 15.6399 3.86668ZM4.72866 12.7833C7.71874 11.1667 10.0269 8.53334 11.1285 5.38334C8.1384 7.00001 5.83027 9.63334 4.72866 12.7833ZM31.9717 17C31.9717 15.7 31.7618 14.45 31.3946 13.2667C30.1706 13.5167 28.9116 13.6667 27.6002 13.6667C22.1271 13.6667 17.2486 11.2667 14.0311 7.51668C12.1951 11.7833 8.54058 15.1333 3.99425 16.7667C4.01173 16.8333 3.99425 16.9167 3.99425 17C3.99425 24.35 10.2717 30.3333 17.983 30.3333C25.6942 30.3333 31.9717 24.35 31.9717 17Z" fill="#222222"/>
</svg>
